<?xml version="1.0" encoding="UTF-8" standalone="no"?>
<!-- Created with Inkscape (http://www.inkscape.org/) -->

<svg
   width="512"
   height="512"
   viewBox="0 0 512 512"
   version="1.1"
   id="svg1"
   xml:space="preserve"
   inkscape:version="1.4.2 (ebf0e940, 2025-05-08)"
   sodipodi:docname="stables.svg"
   xmlns:inkscape="http://www.inkscape.org/namespaces/inkscape"
   xmlns:sodipodi="http://sodipodi.sourceforge.net/DTD/sodipodi-0.dtd"
   xmlns="http://www.w3.org/2000/svg"
   xmlns:svg="http://www.w3.org/2000/svg"><sodipodi:namedview
     id="namedview1"
     pagecolor="#ffffff"
     bordercolor="#000000"
     borderopacity="0.25"
     inkscape:showpageshadow="2"
     inkscape:pageopacity="0.0"
     inkscape:pagecheckerboard="0"
     inkscape:deskcolor="#d1d1d1"
     inkscape:document-units="px"
     inkscape:zoom="1"
     inkscape:cx="255.5"
     inkscape:cy="268"
     inkscape:window-width="1440"
     inkscape:window-height="841"
     inkscape:window-x="0"
     inkscape:window-y="31"
     inkscape:window-maximized="1"
     inkscape:current-layer="layer1" /><defs
     id="defs1" /><g
     inkscape:label="Layer 1"
     inkscape:groupmode="layer"
     id="layer1"><path
       id="path1"
       style="fill:currentColor;stroke-width:1.04961"
       d="m 347.70117,7.7128906 c -2.63416,0.4803842 -4.81456,2.1580646 -7.04971,3.5213804 -8.06021,5.242181 -15.78073,10.975567 -23.53764,16.650189 -17.17342,12.66235 -34.2925,25.397831 -51.53875,37.960574 -9.71014,7.133072 -19.57318,14.058515 -29.17674,21.335726 -1.96206,1.544571 -3.99309,3.020055 -5.83304,4.707456 -1.62617,1.78773 -2.2086,4.21211 -3.15556,6.377689 -4.66841,11.943985 -8.28717,24.263785 -12.83102,36.253185 -0.68333,1.77921 -1.37546,3.5678 -2.34433,5.21529 -17.05298,8.87954 -34.09351,17.78662 -51.1217,26.71595 -29.94345,15.70588 -59.89816,31.37742 -89.834124,47.07669 -14.04102,7.41687 -28.074056,14.86077 -41.856681,22.75228 -1.780354,1.08613 -3.645837,2.08481 -5.244141,3.42968 -1.802097,1.85123 -2.769434,4.39781 -3.136718,6.92188 -0.665644,5.18721 2.155142,10.79021 7.044922,12.87695 2.035835,0.88855 4.352792,1.06222 6.515624,0.58985 0,22.02734 10e-7,44.05468 0,66.08203 6.32674,-2.93816 12.654613,-5.88191 19.009167,-8.75442 2.060867,-1.1957 2.781027,-3.6767 2.958319,-5.90949 0.585354,-7.05379 0.412897,-14.14176 0.489319,-21.21304 0.019,-13.80338 0.02925,-27.60677 0.03148,-41.41016 45.956826,-24.15283 91.850256,-48.42509 137.905456,-72.3901 2.10732,-1.09017 4.21108,-2.18705 6.32306,-3.2681 -5.53792,16.38339 -11.45486,32.70842 -17.02045,49.12426 -1.16361,3.67201 -2.5766,7.34011 -2.87213,11.21167 -0.0271,2.59164 0.97347,5.09278 2.25494,7.30153 1.91203,2.98805 5.53567,4.64141 9.04389,4.38207 0.41729,0.0418 1.16711,-0.3294 0.96304,0.37734 0.005,3.78372 -0.006,7.56744 0.002,11.35117 7.16186,-3.84748 14.32506,-7.69244 21.48633,-11.54101 0.003,-13.95899 0.007,-27.91797 0.01,-41.87696 10.24043,-29.76056 20.58441,-59.48593 30.66339,-89.30056 0.70233,-2.18803 1.37002,-4.60636 3.32242,-6.03436 2.90577,-2.47086 6.18345,-4.49931 9.17744,-6.80272 30.09728,-22.045847 60.02774,-44.318608 90.01448,-66.518607 31.19668,23.047088 62.3687,46.130205 93.77167,68.892277 1.88655,1.35183 3.77003,2.70455 5.65802,4.05499 2.42501,4.93314 3.82144,10.27875 5.73466,15.41435 9.44262,26.89982 19.24019,53.67267 28.92159,80.48799 0,94.81055 0,189.6211 0,284.43164 -15.8125,0.17318 -31.625,0.34636 -47.4375,0.51953 -0.0107,-45.24437 0.0448,-90.48889 -0.0635,-135.73315 -0.0703,-8.85312 -0.0104,-17.71576 -0.52468,-26.55702 -0.15242,-2.77374 -0.55784,-5.6847 -2.24781,-7.98326 -0.99519,-1.51946 -2.02055,-3.01882 -3.01172,-4.54102 -53.12695,0 -106.2539,0 -159.38086,0 -2.22519,2.47981 -4.45236,4.95785 -6.67773,7.4375 0,55.79492 0,111.58985 0,167.38477 -15.65234,0 -31.30469,0 -46.95703,0 0.0236,-20.59023 -0.0124,-41.18088 -0.27293,-61.76973 -0.21343,-18.84404 -0.43057,-37.68983 -0.94059,-56.52829 -0.15101,-3.75656 -0.16161,-7.55306 -0.90035,-11.25113 -0.4723,-2.11412 -2.22455,-4.03124 -4.47793,-4.1364 -2.66825,-0.21436 -4.97201,1.91234 -5.75717,4.3376 -1.48802,3.92665 -1.85215,8.15219 -2.41461,12.28142 -1.04852,8.46618 -1.1373,17.1632 -3.92254,25.31413 -1.03838,3.00573 -2.31737,5.94042 -3.26954,8.96763 -0.18457,33.61966 -0.37109,67.23932 -0.55411,100.85899 2.58635,2.46252 5.17373,4.92396 7.76172,7.38476 99.22787,-0.47122 198.45572,-0.94443 297.68359,-1.41406 2.12896,-2.89546 4.26113,-5.78854 6.39063,-8.6836 -0.18598,-86.24999 -0.36961,-172.5 -0.55469,-258.75 2.55104,-0.0361 5.17607,-0.91268 6.88964,-2.87748 1.89282,-2.00495 3.18399,-4.53386 3.99789,-7.14981 0.59257,-2.12192 -0.42032,-4.17822 -1.00319,-6.17516 -3.73,-11.53465 -7.93832,-22.90562 -11.98446,-34.3316 -9.7425,-27.27444 -19.41707,-54.55039 -28.77346,-81.95897 -2.2152,-6.49378 -4.30905,-13.053097 -7.13286,-19.313712 -1.29148,-2.373162 -3.61854,-3.897122 -5.64185,-5.589345 C 456.75147,84.442176 452.01795,81.24044 447.4521,77.810944 418.2202,56.419488 389.04348,34.966648 359.94409,13.407919 356.94292,11.109413 353.8243,8.6682206 350.04036,7.8723342 349.27433,7.7383034 348.47564,7.6168374 347.70117,7.7128906 Z M 337.06836,112.79492 c -7.67181,0.0891 -15.36202,-0.12204 -23.01528,0.51214 -2.62576,0.23522 -5.40248,1.05809 -7.10758,3.20081 -1.1184,1.23678 -2.23253,2.47737 -3.34589,3.71869 0.0283,23.65732 -0.0761,47.31527 0.10499,70.9721 0.09,5.797 0.0641,11.6156 0.73288,17.38176 0.2913,2.33983 1.39793,4.69238 3.48589,5.93238 2.69412,1.71785 6.00028,1.77887 9.07858,2.10243 9.14179,0.68934 18.3155,0.72537 27.47701,0.92725 14.25803,0.21664 28.51791,0.26006 42.7769,0.3833 2.58504,-2.63763 5.16729,-5.27801 7.75195,-7.91601 -0.12431,-25.09648 -0.13175,-50.19383 -0.36497,-75.28957 -0.0948,-4.61753 -0.057,-9.26257 -0.71506,-13.84294 -0.39158,-2.50228 -1.86954,-4.83104 -4.1043,-6.07044 -2.60214,-1.47338 -5.69113,-1.47608 -8.59309,-1.67665 -8.4781,-0.40284 -16.96965,-0.27862 -25.45461,-0.33375 -6.23581,-0.007 -12.47161,-0.004 -18.70742,-0.001 z m 11.99023,25.13477 c 7.66537,0 15.33073,0 22.9961,0 0,18.28125 0,36.5625 0,54.84375 -15.33073,0 -30.66146,0 -45.99219,0 0,-18.28125 0,-36.5625 0,-54.84375 7.66536,0 15.33073,0 22.99609,0 z M 215.25391,255.9668 c -4.16373,0.16845 -7.81046,2.45453 -11.24193,4.59643 -4.83302,3.14161 -9.63439,6.50367 -15.13503,8.38404 -6.82484,2.95376 -13.03859,7.12624 -19.0131,11.51247 -4.71706,3.48847 -9.08966,7.4255 -13.11627,11.69032 -6.69197,6.80295 -13.06242,13.91017 -19.57188,20.88487 -3.62633,3.77247 -7.27698,7.54724 -11.30461,10.89671 -2.46201,1.97711 -5.63229,2.77792 -8.70117,3.21094 -5.3955,0.61468 -10.83585,-0.0736 -16.16797,-0.91797 -3.891004,-0.65096 -7.930425,-1.52514 -11.907236,-2.10071 -8.94706,-1.32876 -18.078231,-1.98224 -27.086902,-0.88757 -4.276517,0.54459 -8.491778,1.74279 -12.285052,3.81831 -2.94576,1.46305 -5.728986,3.23638 -8.350225,5.21669 -1.35605,0.65747 -2.918627,0.4429 -4.310505,0.42454 -5.514347,-0.29604 -11.507904,-1.20006 -16.843955,1.02969 -5.682514,2.2607 -10.21017,6.64708 -13.9650032,11.36002 -2.4833612,3.16333 -4.3674457,6.76081 -5.70442258,10.54736 -2.57334042,6.81604 -3.02671622,14.17158 -3.26687682,21.38267 -0.3596162,10.4074 -0.2384574,20.82405 -0.2641943,31.23595 0.021222,6.27893 -0.059518,12.56699 0.3296267,18.83654 0.1340413,2.59571 0.7580995,5.41531 2.83638895,7.16776 3.59348855,3.34738 9.50439935,4.01072 13.60490425,1.19917 2.218725,-1.36691 3.471511,-3.89782 3.678665,-6.44607 0.645468,-4.77724 0.595327,-9.61124 0.757003,-14.4203 0.294586,-12.67575 0.339921,-25.35761 0.77445,-38.02977 0.186593,-3.65145 0.216609,-7.42326 1.631762,-10.8562 0.251425,-0.64651 0.525076,-1.28413 0.820794,-1.91167 -0.744202,3.65365 -0.726266,7.4084 -0.80499,11.12148 0.02453,6.23899 -0.205416,12.53817 1.011932,18.6934 0.938619,4.75288 2.497392,9.35117 3.685636,14.04254 0.36044,1.45709 0.747287,3.14144 0.999554,4.71212 0.530905,3.0445 0.689524,6.21801 -0.207847,9.21215 -1.076227,3.90716 -3.299143,7.3503 -5.246785,10.86284 -1.316779,2.26167 -2.638578,4.51924 -3.927734,6.79687 0.738405,18.83195 1.472663,37.66406 2.208984,56.4961 1.929261,2.5743 4.317684,4.83238 5.8125,7.71093 0.355277,2.2814 1.178866,4.4681 2.130726,6.56204 0.821053,1.7962 2.081966,3.52134 4.00404,4.22507 2.643828,1.03062 5.541417,0.70036 8.314343,0.75279 3.26318,-0.0647 6.774482,-0.5343 9.392995,-2.6476 2.3647,-1.94329 3.38487,-5.0602 3.419181,-8.04208 0.210409,-5.25597 -2.862385,-10.40081 -7.479053,-12.8678 -1.152145,-0.47839 -1.771215,-1.66948 -2.385748,-2.68749 -0.765356,-1.37847 -1.04479,-3.02078 -1.255831,-4.4629 -0.593645,-4.09881 -0.710018,-8.31326 0.04423,-12.39767 0.310868,-1.59236 1.662484,-2.62682 2.595504,-3.85925 2.746178,-3.20323 5.68824,-6.2342 8.731331,-9.15518 3.613795,7.61427 6.667237,15.41355 10.089606,23.12199 4.034563,9.31056 8.2627,18.53481 12.4768,27.76472 5.287756,0.17612 10.57136,0.60012 15.863281,0.56836 2.167184,-0.0621 4.529318,-1.22343 5.166625,-3.43195 0.771765,-2.544 -0.477296,-5.07611 -1.373657,-7.40753 -3.584269,-8.68763 -7.86261,-17.06592 -11.520345,-25.72243 -2.692446,-6.22477 -5.40329,-12.45613 -7.593551,-18.87894 -0.257491,-0.62257 0.375251,-1.19253 0.540391,-1.7773 1.926822,-3.85206 4.527239,-7.3114 6.651326,-11.05152 3.477547,-5.87191 6.845184,-11.85751 9.28775,-18.24539 0.419783,-1.21803 0.76006,-2.4613 1.140289,-3.69197 5.091698,1.31253 9.918184,3.47123 14.998584,4.82404 9.3801,2.70445 19.09592,4.57006 28.89438,4.37323 0.90888,-0.29221 0.61288,0.62046 0.65,1.2 0,20.65273 10e-6,41.30547 0,61.9582 2.26437,3.60323 5.05483,6.9299 6.66332,10.90499 0.24184,1.28988 0.43505,2.6085 1.07194,3.78002 1.31755,2.95576 3.85726,5.6158 7.17431,6.12122 4.03212,0.76396 8.16147,0.51029 12.24239,0.58049 3.95762,-0.0254 7.95187,0.10925 11.86953,-0.54102 2.3056,-0.45979 4.40122,-1.83404 5.66567,-3.82678 2.17622,-3.05187 2.53047,-7.09134 1.53805,-10.64038 -1.28966,-5.28165 -3.98017,-10.06151 -6.29756,-14.93651 -0.67822,-1.46001 -1.49618,-2.89327 -2.08783,-4.36985 0.64612,-8.3556 1.25353,-16.71943 2.37884,-25.02761 1.41929,-11.38077 3.08785,-22.73217 5.04734,-34.03251 0.69895,-3.53254 1.24072,-7.12522 2.4446,-10.53113 0.93494,-2.62245 2.61902,-4.87952 3.75447,-7.41086 4.19241,-8.46868 6.59012,-17.85523 6.6503,-27.32068 0.0149,-3.01444 0.26282,-6.02451 0.84087,-8.98513 1.1126,-5.93237 2.77149,-11.74586 5.31133,-17.35212 0.51716,-1.0716 1.0963,-2.11515 1.76564,-3.09964 2.53567,0.44254 5.00404,0.59974 7.47974,1.37445 4.56167,1.55504 8.20046,4.86948 11.63878,8.11791 3.95715,3.12161 9.36828,3.77476 14.2073,2.85693 3.62906,-0.7081 6.89243,-2.78085 9.28594,-5.5719 4.08782,-4.58917 6.52267,-10.59442 6.97281,-16.70954 0.22349,-3.3156 -0.40884,-6.68167 -1.8956,-9.65864 -3.96992,-8.98232 -8.56125,-17.67227 -13.1413,-26.35417 -3.0022,-5.61701 -6.04053,-11.22709 -9.46956,-16.5968 -0.92208,-1.39222 -2.21765,-2.56741 -2.86664,-4.12003 -0.35038,-1.89798 0.12476,-3.82516 0.17473,-5.7327 0.24065,-3.05251 0.78876,-6.26293 -0.12839,-9.27348 -0.92239,-2.56135 -2.909,-4.56799 -4.95898,-6.27539 -1.68483,-1.22304 -3.75086,-1.94391 -5.84375,-1.86523 z m -9.72266,31.89453 c 1.96358,4.35803 5.28126,7.8855 7.6815,11.98478 2.7433,4.40032 4.82095,9.16493 7.28246,13.71939 2.87068,5.57645 5.90333,11.0738 8.56924,16.75286 -2.85426,-2.13848 -5.53727,-4.59306 -8.66052,-6.40054 -2.04425,-1.1833 -4.43948,-1.69774 -6.78874,-1.44462 -1.79813,0.0829 -3.60944,0.61362 -5.4023,0.36078 -1.15745,-0.73841 -2.02034,-1.8481 -2.90234,-2.88281 -1.57693,-2.05357 -2.53782,-4.49665 -3.14649,-6.99414 -0.94,-3.01104 -2.90276,-5.99874 -6.03007,-7.02679 -4.11949,-1.57571 -9.1726,0.2439 -11.37422,4.05999 -1.82772,2.96827 -1.52785,6.61398 -1.11101,9.92111 0.4383,3.46264 1.11165,6.94848 2.50358,10.16288 0.27824,0.49101 -0.29006,1.04551 -0.39648,1.55078 -1.18581,2.44819 -2.52291,4.82266 -3.5708,7.33737 -5.08618,11.49951 -7.56515,24.00781 -8.36485,36.51429 -0.44003,5.4515 -1.00369,11.07754 -3.58977,15.99784 -2.09922,4.07719 -4.8739,7.88619 -5.96975,12.408 -1.66055,6.07796 -2.47212,12.34184 -3.53774,18.54084 -0.38246,2.32074 -0.73746,4.64578 -1.10381,6.96924 0.046,-6.1849 0.094,-12.36978 0.13867,-18.55469 -2.28912,-1.96459 -4.15546,-4.66971 -7.17479,-5.56687 -3.1394,-1.02119 -6.49318,-0.85311 -9.75033,-0.9747 -6.71833,-0.1163 -13.48276,0.30622 -20.1581,-0.64722 -6.37579,-1.0306 -12.40032,-3.45476 -18.40466,-5.6478 -6.765631,-2.45471 -13.397782,-5.32814 -20.350008,-7.23177 -2.974748,-0.79177 -6.366518,-1.20266 -9.152344,0.41016 -2.776055,1.60482 -3.979777,4.76782 -4.910107,7.66508 -1.49694,4.55775 -3.28792,9.06896 -6.016428,13.04475 -4.010531,5.9845 -9.105643,11.123 -14.016226,16.35767 -1.438488,1.50234 -2.886458,2.99573 -4.352161,4.47156 2.566751,-5.6352 2.634328,-11.94504 2.815959,-18.01819 0.105746,-5.38939 -1.226226,-10.66217 -2.736216,-15.79371 -1.414053,-4.907 -2.830897,-9.863 -3.145184,-14.98717 -0.285799,-4.52301 -0.353199,-9.08979 0.236451,-13.59202 0.591098,-4.06033 2.404567,-7.84349 4.804228,-11.13951 2.407565,-3.5708 5.405501,-6.87976 9.290724,-8.85879 5.887593,-3.0749 12.73257,-3.47449 19.243989,-3.06289 7.656268,0.52231 15.125746,2.40411 22.714187,3.43902 6.901356,1.01034 13.930866,1.71526 20.893786,0.94423 6.02208,-0.69383 11.87725,-2.80691 16.89878,-6.2135 7.04874,-4.65736 12.82078,-10.91695 18.49746,-17.10354 7.62587,-8.43561 15.16296,-16.99525 23.6206,-24.62174 0.45894,-0.39641 1.16652,-1.03427 1.6303,-1.43332 1.10882,-0.96909 2.19656,-1.84543 3.32478,-2.74051 0.37756,-0.29792 0.85034,-0.66364 1.28092,-0.98091 4.02265,-3.02717 8.49047,-5.55337 13.36514,-6.90071 2.58685,-0.97489 5.05375,-2.2989 7.22503,-4.01682 0.0326,0.0742 0.0651,0.14844 0.0977,0.22266 z m 150.01758,51.3164 c 13.4901,0.0353 26.97956,0.18112 40.46875,0.33399 -15.63151,18.70117 -31.26302,37.40234 -46.89453,56.10351 -15.44597,-18.70117 -30.89193,-37.40234 -46.33789,-56.10351 17.58716,-0.21272 35.17499,-0.37994 52.76367,-0.33399 z m -48.35742,43.28516 c 8.83528,10.4707 17.67057,20.94141 26.50586,31.41211 -16.04297,19.01302 -32.08594,38.02604 -48.12891,57.03906 0,-38.02539 0,-76.05078 0,-114.07617 7.20768,8.54167 14.41536,17.08333 21.62305,25.625 z m 105.13086,-2.28125 c 0.19442,30.14834 0.099,60.29778 -0.17383,90.44531 -15.81706,-19.02278 -31.63412,-38.04557 -47.45117,-57.06836 15.81705,-18.75455 31.63411,-37.50911 47.45117,-56.26367 0.0579,7.62891 0.11588,15.25781 0.17383,22.88672 z m -38.83985,80.83789 c 7.60663,9.04996 15.22926,18.08757 22.68164,27.26563 -20.53483,0.48323 -41.07733,0.40806 -61.6164,0.43502 -10.75677,-0.002 -21.51354,-0.008 -32.27032,-0.003 15.44106,-19.00143 30.83986,-38.04267 46.78125,-56.62891 8.14128,9.64388 16.28256,19.28776 24.42383,28.93164 z" /></g></svg>
